<?xml version="1.0" encoding="UTF-8"?>
<svg id="Layer_2" data-name="Layer 2" xmlns="http://www.w3.org/2000/svg" viewBox="0 0 424.32 101.6">
  <defs>
    <style>
      .cls-1 { fill: #314C5C; }
      .cls-2 { fill: #f4bd45; }
    </style>
  </defs>
  <g id="Layer_1-2" data-name="Layer 1">
    <g>
      <g>
        <path class="cls-1" d="M86.54,16.65h15.41v7.97h-15.41v13.05h-8.92V.77h26.81v8.09h-17.89v7.79Z"/>
        <path class="cls-1" d="M116.95,26.98v10.69h-8.92V.77h15.76c8.86,0,14.88,5.02,14.88,12.99,0,5.14-2.6,9.21-6.85,11.45l9.27,12.46h-10.8l-7.79-10.69h-5.55ZM123.56,18.72c3.42,0,6.2-1.95,6.2-5.02s-2.78-4.9-6.2-4.9h-6.61v9.86h6.61v.06Z"/>
        <path class="cls-1" d="M181.89,19.19c0,10.75-8.21,19.19-19.07,19.19s-19.01-8.44-19.01-19.19S152.02,0,162.82,0s19.07,8.44,19.07,19.19ZM172.8,19.19c0-5.79-4.19-10.69-9.98-10.69s-9.98,4.9-9.98,10.69,4.19,10.69,9.98,10.69c5.79.06,9.98-4.84,9.98-10.69Z"/>
        <path class="cls-1" d="M225.7,37.67h-8.92v-18.48l-7.97,12.64v.06h-4.96v-.06l-8.03-12.75.06,18.6h-8.92V.77h6.61l12.81,19.72L219.15.77h6.67v36.9h-.12Z"/>
        <path class="cls-1" d="M241,31.29l-2.36,6.38h-9.51L244.42.53h8.5l15.23,37.14h-9.45l-2.42-6.38h-15.29ZM248.61,11.22l-4.66,12.28h9.33l-4.66-12.28Z"/>
        <path class="cls-1" d="M308.19,37.67h-6.67l-.35-4.43c-2.6,3.25-6.32,5.2-11.34,5.2-11.28,0-19.13-8.27-19.13-18.83,0-11.51,8.27-19.6,19.25-19.6,8.8,0,16.35,5.08,17.89,13.88h-9.39c-1.59-4.31-5.2-5.49-8.38-5.49-6.14,0-10.33,4.43-10.33,10.98,0,5.79,4.07,10.51,10.45,10.51,4.19,0,7.32-2.13,9.09-5.67l-10.33-.12v-7.2h19.25v20.78Z"/>
        <path class="cls-1" d="M322.77,15.47h15.88v7.79h-15.88v6.38h18.24v7.97h-27.16V.71h27.16v7.97h-18.24v6.79Z"/>
        <path class="cls-1" d="M354.6,26.98v10.69h-8.92V.77h15.76c8.86,0,14.88,5.02,14.88,12.99,0,5.14-2.6,9.21-6.85,11.45l9.27,12.46h-10.8l-7.73-10.69h-5.61ZM361.21,18.72c3.42,0,6.2-1.95,6.2-5.02s-2.78-4.9-6.2-4.9h-6.61v9.86h6.61v.06Z"/>
        <path class="cls-1" d="M391.2,37.67h-8.92V.77h8.92v36.9Z"/>
        <path class="cls-1" d="M406.08,15.47h15.88v7.79h-15.88v6.38h18.24v7.97h-27.16V.71h27.16v7.97h-18.24v6.79Z"/>
      </g>
      <g>
        <path class="cls-1" d="M85.87,52.99c7.62,0,13.11,5.08,13.11,12.4s-5.49,12.58-13.11,12.58h-9.8v-24.98h9.8ZM85.87,72.42c3.96,0,6.97-3.01,6.97-6.97s-3.01-6.85-6.97-6.85h-3.78v13.82h3.78Z"/>
        <path class="cls-1" d="M108.19,77.97h-6.02v-24.98h6.02v24.98Z"/>
        <path class="cls-1" d="M137.06,77.97h-4.49l-.24-3.01c-1.77,2.18-4.31,3.54-7.68,3.54-7.62,0-12.93-5.61-12.93-12.75,0-7.79,5.55-13.28,13.05-13.28,5.96,0,11.1,3.42,12.1,9.39h-6.32c-1.06-2.89-3.48-3.72-5.67-3.72-4.13,0-7.03,3.01-7.03,7.44,0,3.96,2.78,7.14,7.09,7.14,2.83,0,4.96-1.42,6.14-3.84l-6.97-.06v-4.9h13.05v14.05h-.12Z"/>
        <path class="cls-1" d="M146.92,77.97h-6.08v-24.98h6.02v24.98h.06Z"/>
        <path class="cls-1" d="M163.4,58.54v19.43h-6.02v-19.43h-7.73v-5.55h21.55v5.55h-7.79Z"/>
        <path class="cls-1" d="M180.16,73.66l-1.59,4.31h-6.44l10.33-25.15h5.79l10.27,25.15h-6.38l-1.65-4.31h-10.33ZM185.3,60.08l-3.13,8.33h6.32l-3.19-8.33Z"/>
        <path class="cls-1" d="M218.9,77.97h-18.07v-24.98h6.02v19.48h12.04v5.49Z"/>
        <path class="cls-1" d="M227.52,62.97h10.75v5.31h-10.75v4.31h12.34v5.37h-18.36v-24.98h18.36v5.37h-12.34v4.61Z"/>
      </g>
      <g>
        <path class="cls-1" d="M85.34,88.91v12.58h-1.83v-8.62l-1.71,8.62h-1.3l-1.71-8.62v8.62h-1.83v-12.58h2.6l1.59,8.03,1.54-8.03h2.66Z"/>
        <path class="cls-1" d="M92.9,98.65h-2.01l-.41,2.78h-1.83l2.01-12.58h2.48l2.01,12.58h-1.89l-.35-2.78ZM92.67,96.82l-.77-5.25-.71,5.25h1.48Z"/>
        <path class="cls-1" d="M102.7,101.42l-1.36-5.2h-.94v5.2h-1.83v-12.58h2.89c1.77,0,2.89,1.18,2.89,3.01v1.36c0,1.18-.47,2.07-1.3,2.54l1.54,5.61h-1.89v.06ZM100.4,94.46h.94c.71,0,1.12-.41,1.12-1.18v-1.48c0-.71-.41-1.18-1.12-1.18h-.94v3.84Z"/>
        <path class="cls-1" d="M110.62,96.29l-.71,1.36v3.78h-1.83v-12.58h1.83v5.08l2.42-5.08h2.01l-2.6,5.31,2.78,7.2h-2.01l-1.89-5.08Z"/>
        <path class="cls-1" d="M117.82,88.91h5.25v1.77h-3.42v3.48h2.72v1.77h-2.72v3.66h3.42v1.77h-5.25v-12.46Z"/>
        <path class="cls-1" d="M125.91,88.91h5.9v1.77h-2.01v10.75h-1.83v-10.75h-2.01v-1.77h-.06Z"/>
        <path class="cls-1" d="M135.18,88.91h1.83v12.58h-1.83v-12.58Z"/>
        <path class="cls-1" d="M140.96,88.91h2.07l2.36,8.44v-8.44h1.83v12.58h-1.95l-2.42-8.03v8.03h-1.83v-12.58h-.06Z"/>
        <path class="cls-1" d="M155.02,92.8v-1.06c0-.77-.41-1.24-1.12-1.24s-1.12.47-1.12,1.24v6.85c0,.77.41,1.24,1.12,1.24s1.12-.47,1.12-1.24v-2.24h-1.12v-1.77h2.95v4.01c0,1.83-1.18,3.01-2.95,3.01s-2.95-1.24-2.95-3.01v-6.85c0-1.83,1.18-3.01,2.95-3.01s2.95,1.24,2.95,3.01v1.06h-1.83Z"/>
      </g>
      <g>
        <path class="cls-2" d="M47.4,19.56L3.57,41.42C1.93,42.23,0,41.04,0,39.21v-7.12c0-1.89,1.07-3.62,2.76-4.46l22.8-11.38c2.02-1.01,4.24-1.53,6.49-1.53h14.21c2.7,0,3.55,3.64,1.14,4.84Z"/>
        <path class="cls-2" d="M50.9,20.94L3.89,43.69c-2.06,1-3.22,3.22-2.86,5.48l2.17,13.63c.36,2.29,3,3.39,4.89,2.05l44.26-31.6c2.19-1.57,3.31-4.24,2.89-6.9l-.55-3.43c-.28-1.76-2.18-2.75-3.78-1.97Z"/>
        <path class="cls-2" d="M13.79,78.35l46.52-23.75c2.04-1.04,3.15-3.29,2.74-5.54l-2.46-13.58c-.41-2.28-3.07-3.33-4.93-1.94L12.09,66.09c-2.16,1.61-3.22,4.31-2.74,6.96l.62,3.41c.32,1.75,2.23,2.7,3.82,1.89Z"/>
      </g>
    </g>
  </g>
</svg>
